FFmpeg version SVN-r25716, Copyright (c) 2000-2010 the FFmpeg developers  built on Nov 10 2010 12:23:18 with gcc 4.1.2 20080704 (Red Hat 4.1.2-48)  configuration: --enable-libmp3lame --enable-shared --disable-mmx --arch=x86_64  libavutil     50.33. 0 / 50.33. 0  libavcore      0.12. 1 /  0.12. 1  libavcodec    52.94. 4 / 52.94. 4  libavformat   52.84. 0 / 52.84. 0  libavdevice   52. 2. 2 / 52. 2. 2  libavfilter    1.59. 0 /  1.59. 0  libswscale     0.12. 0 /  0.12. 0Input #0, avi, from '/RAID10/data/converted_video_files/47597.avi':  Duration: 00:00:09.70, start: 0.000000, bitrate: 89020 kb/s    Stream #0.0: Video: msvideo1, rgb555le, 1024x1024, 20 tbr, 20 tbn, 20 tbc[buffer @ 0x195293b0] w:1024 h:1024 pixfmt:rgb555le[ffsink @ 0x19545b40] auto-inserting filter 'auto-inserted scaler 0' between the filter 'src' and the filter 'out'[scale @ 0x1957fe00] w:1024 h:1024 fmt:rgb555le -> w:1024 h:1024 fmt:yuv420p flags:0x4Output #0, flv, to '/RAID10/data/converted_video_files/47597.flv':  Metadata:    encoder         : Lavf52.84.0    Stream #0.0: Video: flv, yuv420p, 1024x1024, q=2-31, 600 kb/s, 1k tbn, 24 tbcStream mapping:  Stream #0.0 -> #0.0Press [q] to stop encodingframe=    6 fps=  0 q=9.4 size=    1336kB time=0.29 bitrate=37493.7kbits/s    frame=   12 fps= 10 q=14.8 size=    1655kB time=0.58 bitrate=23221.7kbits/s    frame=   19 fps= 11 q=20.1 size=    1898kB time=0.96 bitrate=16217.4kbits/s    frame=   26 fps= 11 q=31.0 size=    1933kB time=1.29 bitrate=12263.3kbits/s    frame=   34 fps= 12 q=31.0 size=    1985kB time=1.71 bitrate=9513.1kbits/s    frame=   41 fps= 12 q=31.0 size=    2042kB time=2.04 bitrate=8195.7kbits/s    frame=   48 fps= 12 q=31.0 size=    2061kB time=2.38 bitrate=7109.5kbits/s    frame=   56 fps= 12 q=31.0 size=    2117kB time=2.79 bitrate=6214.9kbits/s    frame=   65 fps= 13 q=31.0 size=    2177kB time=3.25 bitrate=5489.4kbits/s    frame=   74 fps= 13 q=31.0 size=    2192kB time=3.71 bitrate=4843.4kbits/s    frame=   82 fps= 13 q=31.0 size=    2236kB time=4.08 bitrate=4486.1kbits/s    frame=   91 fps= 14 q=31.0 Lsize=    2298kB time=4.54 bitrate=4145.1kbits/s    video:2297kB audio:0kB global headers:0kB muxing overhead 0.070842%